<svg xmlns="http://www.w3.org/2000/svg" fill="none" viewBox="0 0 14 14"><g id="mail-send-envelope--envelope-email-message-unopened-sealed-close"><path id="Subtract" fill="#9c3940" fill-rule="evenodd" d="M2.674 12.54a2.091 2.091 0 0 1-1.852-1.814C.672 9.521.522 8.276.522 7c0-.939.082-1.862.184-2.763a.249.249 0 0 1 .402-.167l4.267 3.365a2.625 2.625 0 0 0 3.25 0l4.268-3.365a.249.249 0 0 1 .401.167c.102.901.184 1.824.184 2.763 0 1.276-.15 2.522-.3 3.726a2.091 2.091 0 0 1-1.852 1.814l-.134.014c-1.354.141-2.756.288-4.192.288-1.436 0-2.838-.147-4.192-.288l-.134-.014ZM12.78 2.289a.23.23 0 0 1-.05.318L7.851 6.453a1.373 1.373 0 0 1-1.702 0L1.27 2.607a.23.23 0 0 1-.05-.318 2.09 2.09 0 0 1 1.454-.83l.134-.013C4.162 1.304 5.564 1.158 7 1.158c1.436 0 2.838.146 4.192.288l.134.014a2.09 2.09 0 0 1 1.454.829Z" clip-rule="evenodd"></path></g></svg>