<svg xmlns="http://www.w3.org/2000/svg" fill="none" viewBox="0 0 14 14"><g id="maximize-2"><path id="Union" fill="#9c3940" fill-rule="evenodd" d="M5.285.294c.905-.1 1.852-.19 2.823-.19.971 0 1.918.09 2.823.19a3.136 3.136 0 0 1 2.759 2.767c.096.9.18 1.84.18 2.805 0 .964-.084 1.904-.18 2.804a3.136 3.136 0 0 1-2.76 2.767c-.904.101-1.85.19-2.822.19-.252 0-.503-.006-.752-.017.015-.23.025-.469.025-.714 0-.541-.047-1.052-.094-1.494A3.003 3.003 0 0 0 4.64 6.745c-.443-.05-.96-.1-1.51-.1-.263 0-.52.012-.765.03a18.59 18.59 0 0 1-.018-.81c0-.964.083-1.904.18-2.804A3.136 3.136 0 0 1 5.284.294Zm6.505 2.097a.75.75 0 0 0-.257-.257c-.556-.334-1.24-.484-1.85-.484-.579 0-1.285.137-1.744.596a.75.75 0 0 0 .144 1.174l.803.481-1.663 1.664A.875.875 0 1 0 8.46 6.802l1.638-1.638.406.677a.75.75 0 0 0 1.174.144c.46-.46.596-1.165.596-1.744 0-.61-.15-1.294-.484-1.85ZM1.76 7.987c.433-.048.894-.091 1.37-.091.477 0 .94.043 1.371.091.808.09 1.456.737 1.543 1.548.046.43.087.888.087 1.36 0 .473-.04.93-.087 1.361a1.753 1.753 0 0 1-1.543 1.548 12.37 12.37 0 0 1-1.37.091c-.477 0-.938-.043-1.37-.091a1.753 1.753 0 0 1-1.543-1.548c-.046-.43-.087-.888-.087-1.36 0-.473.04-.93.087-1.361A1.753 1.753 0 0 1 1.76 7.987Z" clip-rule="evenodd"></path></g></svg>