<svg xmlns="http://www.w3.org/2000/svg" fill="none" viewBox="0 0 14 14"><g id="search-category"><path id="Union" fill="#9c3940" fill-rule="evenodd" d="M3.188.05c-.503 0-.99.046-1.447.097A1.826 1.826 0 0 0 .134 1.759a13.46 13.46 0 0 0-.092 1.436c0 .499.043.982.092 1.437.09.844.765 1.518 1.607 1.612.457.051.944.097 1.446.097.236 0 .468-.01.695-.026.235-.524.56-1.01.986-1.437a4.796 4.796 0 0 1 1.44-.988c.015-.227.025-.46.025-.695 0-.498-.043-.981-.092-1.436A1.826 1.826 0 0 0 4.634.147 12.996 12.996 0 0 0 3.187.05Zm0 7.604c.096 0 .192.002.287.005a7.1 7.1 0 0 0-.103 1.223c0 1.487.424 2.933 1.496 4.004.218.218.451.41.698.576a1.819 1.819 0 0 1-.932.387 13 13 0 0 1-1.447.096 13 13 0 0 1-1.446-.096 1.826 1.826 0 0 1-1.607-1.612A13.46 13.46 0 0 1 .042 10.8c0-.498.043-.982.092-1.437A1.826 1.826 0 0 1 1.74 7.751c.457-.05.944-.097 1.446-.097Zm10.678-3.022a1.806 1.806 0 0 1-.404.958 4.726 4.726 0 0 0-.586-.712c-1.071-1.072-2.517-1.496-4.004-1.496a7.08 7.08 0 0 0-1.2.1 9.292 9.292 0 0 1-.005-.287c0-.498.043-.981.092-1.436A1.826 1.826 0 0 1 9.366.147C9.823.096 10.31.05 10.813.05c.502 0 .99.046 1.446.097a1.825 1.825 0 0 1 1.607 1.612c.049.455.092.938.092 1.436 0 .499-.043.982-.092 1.437Zm-7.054 2.19c-.416.417-.69 1.078-.69 2.06s.274 1.643.69 2.06c.417.416 1.078.69 2.06.69s1.643-.274 2.06-.69c.416-.417.69-1.078.69-2.06s-.274-1.643-.69-2.06c-.417-.416-1.078-.69-2.06-.69s-1.643.274-2.06.69Zm-1.06-1.06c.773-.774 1.862-1.13 3.12-1.13s2.347.356 3.12 1.13c.774.773 1.13 1.862 1.13 3.12 0 .967-.21 1.834-.659 2.534l1.253 1.254a.75.75 0 1 1-1.06 1.06l-1.254-1.254c-.7.447-1.565.656-2.53.656-1.258 0-2.347-.356-3.12-1.13-.774-.773-1.13-1.862-1.13-3.12s.356-2.347 1.13-3.12Z" clip-rule="evenodd"></path></g></svg>